<svg xmlns="http://www.w3.org/2000/svg" width="20" height="21" viewBox="0 0 20 21">
    <defs>
        <clipPath id="clip-path">
            <path id="패스_8" d="M1-103h20v-21H1z" class="cls-1" data-name="패스 8"/>
        </clipPath>
        <clipPath id="clip-path-2">
            <path id="사각형_10" d="M0 0H20V20H0z" class="cls-1" data-name="사각형 10" transform="translate(1 -124)"/>
        </clipPath>
        <clipPath id="clip-path-3">
            <path id="패스_7" fill="#fff" d="M17.96-106.422A9.837 9.837 0 0 1 11.2-104a10.21 10.21 0 0 1-9.116-5.5A9.843 9.843 0 0 1 1-114a9.832 9.832 0 0 1 1.088-4.489A10.219 10.219 0 0 1 11.2-124a9.9 9.9 0 0 1 6.825 2.611l-2.925 2.867a5.583 5.583 0 0 0-3.9-1.5 6.066 6.066 0 0 0-5.7 4.122 5.925 5.925 0 0 0-.329 1.9 5.872 5.872 0 0 0 .329 1.9 6.051 6.051 0 0 0 5.7 4.122 6.248 6.248 0 0 0 3.458-.955 4.6 4.6 0 0 0 2.041-3.011H11.2v-3.867h9.615a12.048 12.048 0 0 1 .185 2.044 9.635 9.635 0 0 1-3.04 7.345z" clip-rule="evenodd" data-name="패스 7"/>
        </clipPath>
        <style>
            .cls-1{fill:#fff}.cls-3{clip-path:url(#clip-path)}
        </style>
    </defs>
    <g id="구글" class="cls-3" transform="translate(-1 124)">
        <g id="그룹_13" data-name="그룹 13" style="isolation:isolate">
            <g id="그룹_12" clip-path="url(#clip-path-2)" data-name="그룹 12">
                <g id="그룹_11" clip-path="url(#clip-path-3)" data-name="그룹 11">
                    <g id="그룹_10" class="cls-3" data-name="그룹 10">
                        <path id="패스_5" d="M-4-129h30v30H-4z" class="cls-1" data-name="패스 5"/>
                    </g>
                </g>
            </g>
        </g>
    </g>
</svg>
