<svg xmlns="http://www.w3.org/2000/svg" width="21.947" height="19.982" viewBox="0 0 21.947 19.982">
    <defs>
        <clipPath id="clip-path">
            <path id="패스_16" d="M0 0h21.947v-19.982H0z" class="cls-1" data-name="패스 16"/>
        </clipPath>
        <clipPath id="clip-path-2">
            <path id="사각형_12" d="M0 0H23V21H0z" class="cls-1" data-name="사각형 12" transform="translate(-1 -20)"/>
        </clipPath>
        <clipPath id="clip-path-3">
            <path id="패스_15" fill="#312d2b" d="M8.795-12.677h-.024L8.035-10.6h1.494zm0 0h-.024L8.035-10.6h1.494zm-.024 0L8.035-10.6h1.494l-.735-2.078H8.77zM18.932-8.6a.532.532 0 0 1-.741-.1l-1.573-2.046-.338.335v1.334a.589.589 0 0 1-.592.586.589.589 0 0 1-.592-.586V-13.4a.59.59 0 0 1 .592-.588.59.59 0 0 1 .592.588v1.528l1.86-1.843a.525.525 0 0 1 .737 0 .513.513 0 0 1 0 .73l-1.5 1.49L19.04-9.33a.522.522 0 0 1-.105.735zm-4.663.069h-2.18a.493.493 0 0 1-.5-.491.457.457 0 0 1 .01-.093.568.568 0 0 1-.01-.094v-4.194a.59.59 0 0 1 .592-.588.59.59 0 0 1 .592.588v3.891h1.492a.493.493 0 0 1 .5.491.493.493 0 0 1-.5.491zm-3.444.007a.532.532 0 0 1-.677-.322l-.272-.77H7.688l-.272.77a.533.533 0 0 1-.677.322.524.524 0 0 1-.324-.67l1.573-4.18a.654.654 0 0 1 .03-.072.763.763 0 0 1 .778-.546.786.786 0 0 1 .749.457h.005l1.6 4.335a.525.525 0 0 1-.325.67zm-5.253-.5a.528.528 0 0 1-.157.374.534.534 0 0 1-.375.154h-.116a.533.533 0 0 1-.375-.154.529.529 0 0 1-.158-.374v-3.81H3.348a.543.543 0 0 1-.546-.541.543.543 0 0 1 .546-.541h3.209a.544.544 0 0 1 .546.541.544.544 0 0 1-.546.541h-.985zm5.4-10.957C4.913-19.982 0-16.133 0-11.384c0 3.091 2.082 5.8 5.206 7.314-.23.85-.831 3.077-.952 3.553-.148.592.219.584.459.424C4.9-.217 7.72-2.116 8.936-2.935a14.02 14.02 0 0 0 2.037.149c6.061 0 10.973-3.85 10.973-8.6s-4.913-8.6-10.973-8.6zm-2.178 7.3H8.77L8.035-10.6h1.494zm0 0H8.77L8.035-10.6h1.494z" clip-rule="evenodd" data-name="패스 15"/>
        </clipPath>
        <clipPath id="clip-path-4">
            <path id="패스_14" d="M0 0h22v-20H0z" class="cls-1" data-name="패스 14"/>
        </clipPath>
        <style>
            .cls-1{fill:#312d2b}
        </style>
    </defs>
    <g id="카카오톡" clip-path="url(#clip-path)" transform="translate(0 19.982)">
        <g id="그룹_23" data-name="그룹 23" style="isolation:isolate">
            <g id="그룹_22" clip-path="url(#clip-path-2)" data-name="그룹 22">
                <g id="그룹_21" clip-path="url(#clip-path-3)" data-name="그룹 21">
                    <g id="그룹_20" clip-path="url(#clip-path-4)" data-name="그룹 20">
                        <path id="패스_13" d="M-5-24.982h31.947V5H-5z" class="cls-1" data-name="패스 13"/>
                    </g>
                </g>
            </g>
        </g>
    </g>
</svg>
