<svg xmlns="http://www.w3.org/2000/svg" width="206.042" height="287.298" viewBox="0 0 206.042 287.298">
    <defs>
        <style>
            .cls-1{fill:#fff}
        </style>
    </defs>
    <g id="그룹_67" data-name="그룹 67" transform="translate(18.575 -203.754)">
        <path id="패스_56" d="M3783.977 531.248l-95.552 86.615v.006l-.357.323c-.008 0-.01.011-.019.015-.341.273-.671.577-1 .89-4.4 4.342-6.89 12.084-7.015 12.474L3644.2 743.133l-6.818-2.19 35.835-111.561c.125-.391 2.612-8.132 1.562-14.227-.083-.444-.174-.883-.292-1.3 0-.008 0-.014-.006-.022l-.1-.471v-.006L3647.142 487.3a7.6 7.6 0 0 1 9.752-8.839l124.3 39.928a7.6 7.6 0 0 1 2.783 12.859z" class="cls-1" data-name="패스 56" transform="translate(-3599.012 -274.328)"/>
        <rect id="사각형_17" width="123.67" height="7.008" class="cls-1" data-name="사각형 17" rx="2.689" transform="rotate(17.808 -1433.398 170.837)"/>
        <path id="패스_61" d="M3788.522 531.248l-95.552 86.617v.007l-.36.319c-.007.007-.007.014-.021.02-.339.271-.672.577-1 .889-4.4 4.342-6.886 12.082-7.015 12.476l-4.633 14.416-19.1 59.475q-2.961-2.595-5.821-5.292l17.407-54.183 5.332-16.607c.129-.393 2.612-8.134 1.567-14.226-.088-.448-.176-.889-.3-1.309a.025.025 0 0 0-.007-.02l-.1-.468.007-.007L3651.69 487.3a7.6 7.6 0 0 1 9.749-8.839l124.3 39.93a7.594 7.594 0 0 1 2.783 12.857z" class="cls-1" data-name="패스 61" transform="translate(-3603.556 -274.328)"/>
        <path id="패스_73" fill="#e8ffaa" d="M3736.522 592.679l33.725-30.6-85.586-12.679 16.309 75.532z" data-name="패스 73" transform="translate(-3614.217 -297.264)"/>
        <path id="패스_74" fill="#bbff6a" d="M3787.258 563.9c-4.308-5.78-25.725-11.634-49.909-7.388l49.911 7.389z" data-name="패스 74" transform="translate(-3631.16 -299.084)"/>
        <path id="패스_75" fill="#adffab" d="M3720.4 554.692l-35.741-5.292s11.553 9.538 35.741 5.292z" data-name="패스 75" transform="translate(-3614.217 -297.264)"/>
    </g>
</svg>
