<svg xmlns="http://www.w3.org/2000/svg" width="402.577" height="349" viewBox="0 0 402.577 349">
    <defs>
        <style>
            .cls-1,.cls-7{fill:none}.cls-1{stroke:#fff;stroke-width:.5px}.cls-2{fill:#fff}.cls-3{fill:#e8ffaa}.cls-4{fill:#adffab}.cls-5{fill:#bbff6a}.cls-6{stroke:none}
        </style>
    </defs>
    <g id="그룹_89" data-name="그룹 89" transform="translate(18.575 -187)">
        <g id="타원_5" class="cls-1" data-name="타원 5" transform="translate(143 235)">
            <circle cx="50" cy="50" r="50" class="cls-6"/>
            <circle cx="50" cy="50" r="49.75" class="cls-7"/>
        </g>
        <g id="타원_4" class="cls-1" data-name="타원 4" transform="translate(95 187)">
            <circle cx="98" cy="98" r="98" class="cls-6"/>
            <circle cx="98" cy="98" r="97.75" class="cls-7"/>
        </g>
        <g id="그룹_68" data-name="그룹 68">
            <path id="패스_57" d="M4021.738 561.225l-40.174 122.55v.007l-.151.457c0 .007 0 .014-.009.022-.161.406-.3.834-.425 1.267-1.678 5.953-.008 13.91.076 14.311l24.064 114.678-7.008 1.47-24.064-114.677c-.084-.4-1.754-8.359-5.683-13.135-.292-.345-.589-.681-.9-.988-.007-.005-.009-.012-.016-.017l-.321-.358v-.012l-86.048-96.063a7.6 7.6 0 0 1 4.1-12.508l127.776-26.813a7.6 7.6 0 0 1 8.783 9.809z" class="cls-2" data-name="패스 57" transform="translate(-3676.76 -297.86)"/>
            <rect id="사각형_18" width="116.182" height="7.008" class="cls-2" data-name="사각형 18" rx="2.689" transform="rotate(-11.76 2687.329 -1036.21)"/>
            <path id="패스_62" d="M3980.982 685.528c-1.676 5.956-.007 13.907.075 14.314l11.187 53.322q-3.226 1.913-6.533 3.718l-11.662-55.574c-.082-.4-1.75-8.358-5.685-13.134-.292-.346-.583-.678-.9-.984-.007-.007-.007-.014-.021-.02l-.319-.36v-.01l-15.481-17.279-70.566-78.782a7.6 7.6 0 0 1 4.1-12.51l127.775-26.81a7.6 7.6 0 0 1 8.785 9.8l-35.5 108.3-4.674 14.253v.007l-.149.455a.025.025 0 0 0-.007.02c-.16.413-.296.84-.425 1.274z" class="cls-2" data-name="패스 62" transform="translate(-3676.762 -297.861)"/>
            <path id="패스_70" d="M4008.377 619.968l-24.077 73.426-53.509-59.745-11.561-12.909z" class="cls-3" data-name="패스 70" transform="translate(-3689.656 -319.959)"/>
            <path id="패스_71" d="M3977.055 620.4c25.884 15.8 48.475.57 49.859-.393l.034-.027.02-.014" class="cls-4" data-name="패스 71" transform="translate(-3708.252 -319.959)"/>
            <path id="패스_72" d="M3958.458 617.171l-.01-.006a.676.676 0 0 1-.095-.054c-26.756-16.41-39.123.4-39.123.4" class="cls-5" data-name="패스 72" transform="translate(-3689.655 -316.728)"/>
        </g>
        <g id="그룹_67" data-name="그룹 67">
            <path id="패스_56" d="M3783.977 531.248l-95.552 86.615v.006l-.357.323c-.008 0-.01.011-.019.015-.341.273-.671.577-1 .89-4.4 4.342-6.89 12.084-7.015 12.474L3644.2 743.133l-6.818-2.19 35.835-111.561c.125-.391 2.612-8.132 1.562-14.227-.083-.444-.174-.883-.292-1.3 0-.008 0-.014-.006-.022l-.1-.471v-.006L3647.142 487.3a7.6 7.6 0 0 1 9.752-8.839l124.3 39.928a7.6 7.6 0 0 1 2.783 12.859z" class="cls-2" data-name="패스 56" transform="translate(-3599.012 -274.328)"/>
            <rect id="사각형_17" width="123.67" height="7.008" class="cls-2" data-name="사각형 17" rx="2.689" transform="rotate(17.808 -1433.398 170.837)"/>
            <path id="패스_61" d="M3788.522 531.248l-95.552 86.617v.007l-.36.319c-.007.007-.007.014-.021.02-.339.271-.672.577-1 .889-4.4 4.342-6.886 12.082-7.015 12.476l-4.633 14.416-19.1 59.475q-2.961-2.595-5.821-5.292l17.407-54.183 5.332-16.607c.129-.393 2.612-8.134 1.567-14.226-.088-.448-.176-.889-.3-1.309a.025.025 0 0 0-.007-.02l-.1-.468.007-.007L3651.69 487.3a7.6 7.6 0 0 1 9.749-8.839l124.3 39.93a7.594 7.594 0 0 1 2.783 12.857z" class="cls-2" data-name="패스 61" transform="translate(-3603.556 -274.328)"/>
            <path id="패스_73" d="M3736.522 592.679l33.725-30.6-85.586-12.679 16.309 75.532z" class="cls-3" data-name="패스 73" transform="translate(-3614.217 -297.264)"/>
            <path id="패스_74" d="M3787.258 563.9c-4.308-5.78-25.725-11.634-49.909-7.388l49.911 7.389z" class="cls-5" data-name="패스 74" transform="translate(-3631.16 -299.084)"/>
            <path id="패스_75" d="M3720.4 554.692l-35.741-5.292s11.553 9.538 35.741 5.292z" class="cls-4" data-name="패스 75" transform="translate(-3614.217 -297.264)"/>
        </g>
    </g>
</svg>
