<svg xmlns="http://www.w3.org/2000/svg" xmlns:xlink="http://www.w3.org/1999/xlink" width="38.5" height="47.279" viewBox="0 0 38.5 47.279">
    <defs>
        <linearGradient id="r2z712akra" x1="-.687" x2="1.553" y1=".386" y2=".38" gradientUnits="objectBoundingBox">
            <stop offset="0" stop-color="#ff76af"/>
            <stop offset=".483" stop-color="#c8a2ff"/>
            <stop offset="1" stop-color="#5c97ff"/>
        </linearGradient>
        <linearGradient id="lf2o9sfclb" x1="-1.3" x2="1.553" y1=".335" y2=".38" xlink:href="#r2z712akra"/>
    </defs>
    <g>
        <g>
            <path fill="url(#r2z712akra)" d="M355.713 264.875a10.678 10.678 0 0 1 5.1-8.988 11.067 11.067 0 0 0-8.638-4.7c-3.684-.371-7.193 2.172-9.055 2.172s-4.753-2.112-7.8-2.051a11.572 11.572 0 0 0-9.785 5.921c-4.168 7.235-1.071 17.958 3 23.824 1.984 2.872 4.348 6.1 7.454 5.982 3-.116 4.132-1.935 7.753-1.935s4.637 1.935 7.807 1.886c3.219-.067 5.264-2.939 7.229-5.811a26.216 26.216 0 0 0 3.277-6.73 10.429 10.429 0 0 1-6.342-9.57z" transform="translate(-323.557 -210.935) translate(323.557 210.935) translate(-323.557 -239.761)"/>
            <path fill="url(#lf2o9sfclb)" d="M398.16 218.481a10.368 10.368 0 0 0 2.462-7.546 10.586 10.586 0 0 0-6.959 3.578 9.9 9.9 0 0 0-2.513 7.321 8.774 8.774 0 0 0 7.01-3.353z" transform="translate(-323.557 -210.935) translate(323.557 210.935) translate(-371.962 -210.935)"/>
        </g>
    </g>
</svg>
