<svg xmlns="http://www.w3.org/2000/svg" width="83.237" height="110.278" viewBox="0 0 83.237 110.278">
    <g>
        <path fill="none" d="M3928.76 554.723l-13.98 42.647-.052.159v.008c-.056.141-.1.29-.148.441a12.281 12.281 0 0 0 .026 4.98l8.374 39.908-2.438.512-8.375-39.907a12.282 12.282 0 0 0-1.978-4.571c-.1-.12-.2-.237-.313-.344l-.006-.006-.112-.125-29.944-33.43a2.645 2.645 0 0 1 1.427-4.353l44.466-9.331a2.645 2.645 0 0 1 3.053 3.412z" transform="rotate(12.04 1313.106 -736.27) translate(-3676.76 -297.86)"/>
        <path fill="none" stroke="#d0befc" d="M7695.271-5608.053a1.218 1.218 0 0 1 .943-1.444l17.18-3.6-8.479-39.886a12.238 12.238 0 0 0-1.979-4.572c-.1-.12-.2-.235-.312-.342l-.006-.006-.11-.126-5.389-6.014-24.556-27.416a2.645 2.645 0 0 1 1.427-4.353l44.466-9.329a2.643 2.643 0 0 1 3.055 3.411l-12.354 37.687-1.626 4.959-.051.157v.008a4.582 4.582 0 0 0-.149.441 12.329 12.329 0 0 0 .025 4.981l8.479 39.886 17.565-3.686a1.217 1.217 0 0 1 1.444.941 1.22 1.22 0 0 1-.943 1.444l-37.182 7.8a1.218 1.218 0 0 1-.253.026 1.221 1.221 0 0 1-1.195-.967z" transform="rotate(12.04 1313.106 -736.27) translate(-7469.511 5958.6)"/>
        <path fill="#bca3fc" d="M3950.69 618.9l-8.813 26.621-18.621-20.791 11.561-2.457z" transform="rotate(12.04 1313.106 -736.27) translate(-3707.392 -350.353)"/>
    </g>
</svg>
