<svg xmlns="http://www.w3.org/2000/svg" width="345" height="280.002" viewBox="0 0 345 280.002">
    <path fill="#7c90fc" d="M3289-1833h-345v-280l4 4 4-4h-3.25 3.251l4 4 4-4h-3.141 3.141l4 4 4-4h-3.03 3.031l4 4 4-4h-2.92 2.921l4 4 4-4h-2.81 2.81l4 4 4-4h-2.7 2.7l4 4 4-4h-2.59 2.59l4 4 4-4h-2.48 2.48l4 4 4-4h-2.37 2.37l4 4 4-4h-2.26 2.26l4 4 4-4h-2.15 2.15l4 4 4-4h-2.04 2.04l4 4 4-4h-1.929 1.93l4 4 4-4h-1.819 1.82l4 4 4-4h-1.709 1.71l4 4 4-4h-1.6 1.6l4 4 4-4h-1.489 1.49l4 4 4-4h-1.379 1.38l4 4 4-4h-1.269 1.27l4 4 4-4h-1.159 1.159l4 4 4-4h-1.049 1.049l4 4 4-4h-.938.939l4 4 4-4h-.828.829l4 4 4-4h-.718.719l4 4 4-4h-.608.609l4 4 4-4 4 4 4-4 4 4 4-4 4 4 4-4 4 4 4-4 4 4 4-4 4 4 4-4 4 4 4-4 4 4 4-4 4 4 4-4 4 4 4-4 4 4 4-4 4 4 4-4 4 4 4-4 4 4 4-4 4 4 4-4 4 4 4-4 4 4 4-4 1 1v279z" transform="translate(-2944 2113.001)"/>
</svg>
