<svg xmlns="http://www.w3.org/2000/svg" width="181.627" height="282.608" viewBox="0 0 181.627 282.608">
    <defs>
        <style>
            .cls-1{fill:#fff}
        </style>
    </defs>
    <g id="그룹_68" data-name="그룹 68" transform="translate(-202.374 -253.392)">
        <path id="패스_57" d="M4021.738 561.225l-40.174 122.55v.007l-.151.457c0 .007 0 .014-.009.022-.161.406-.3.834-.425 1.267-1.678 5.953-.008 13.91.076 14.311l24.064 114.678-7.008 1.47-24.064-114.677c-.084-.4-1.754-8.359-5.683-13.135-.292-.345-.589-.681-.9-.988-.007-.005-.009-.012-.016-.017l-.321-.358v-.012l-86.048-96.063a7.6 7.6 0 0 1 4.1-12.508l127.776-26.813a7.6 7.6 0 0 1 8.783 9.809z" class="cls-1" data-name="패스 57" transform="translate(-3676.76 -297.86)"/>
        <rect id="사각형_18" width="116.182" height="7.008" class="cls-1" data-name="사각형 18" rx="2.689" transform="rotate(-11.76 2687.329 -1036.21)"/>
        <path id="패스_62" d="M3980.982 685.528c-1.676 5.956-.007 13.907.075 14.314l11.187 53.322q-3.226 1.913-6.533 3.718l-11.662-55.574c-.082-.4-1.75-8.358-5.685-13.134-.292-.346-.583-.678-.9-.984-.007-.007-.007-.014-.021-.02l-.319-.36v-.01l-15.481-17.279-70.566-78.782a7.6 7.6 0 0 1 4.1-12.51l127.775-26.81a7.6 7.6 0 0 1 8.785 9.8l-35.5 108.3-4.674 14.253v.007l-.149.455a.025.025 0 0 0-.007.02c-.16.413-.296.84-.425 1.274z" class="cls-1" data-name="패스 62" transform="translate(-3676.762 -297.861)"/>
        <path id="패스_70" fill="#e8ffaa" d="M4008.377 619.968l-24.077 73.426-53.509-59.745-11.561-12.909z" data-name="패스 70" transform="translate(-3689.656 -319.959)"/>
        <path id="패스_71" fill="#adffab" d="M3977.055 620.4c25.884 15.8 48.475.57 49.859-.393l.034-.027.02-.014" data-name="패스 71" transform="translate(-3708.252 -319.959)"/>
        <path id="패스_72" fill="#bbff6a" d="M3958.458 617.171l-.01-.006a.676.676 0 0 1-.095-.054c-26.756-16.41-39.123.4-39.123.4" data-name="패스 72" transform="translate(-3689.655 -316.728)"/>
    </g>
</svg>
